<svg width="42" height="46" viewBox="0 0 42 46" fill="none" xmlns="http://www.w3.org/2000/svg">
<path d="M0 41.6875C0 44.0684 2.01562 46 4.5 46H37.5C39.9844 46 42 44.0684 42 41.6875V17.25H0V41.6875ZM30 24.0781C30 23.4852 30.5063 23 31.125 23H34.875C35.4937 23 36 23.4852 36 24.0781V27.6719C36 28.2648 35.4937 28.75 34.875 28.75H31.125C30.5063 28.75 30 28.2648 30 27.6719V24.0781ZM30 35.5781C30 34.9852 30.5063 34.5 31.125 34.5H34.875C35.4937 34.5 36 34.9852 36 35.5781V39.1719C36 39.7648 35.4937 40.25 34.875 40.25H31.125C30.5063 40.25 30 39.7648 30 39.1719V35.5781ZM18 24.0781C18 23.4852 18.5063 23 19.125 23H22.875C23.4937 23 24 23.4852 24 24.0781V27.6719C24 28.2648 23.4937 28.75 22.875 28.75H19.125C18.5063 28.75 18 28.2648 18 27.6719V24.0781ZM18 35.5781C18 34.9852 18.5063 34.5 19.125 34.5H22.875C23.4937 34.5 24 34.9852 24 35.5781V39.1719C24 39.7648 23.4937 40.25 22.875 40.25H19.125C18.5063 40.25 18 39.7648 18 39.1719V35.5781ZM6 24.0781C6 23.4852 6.50625 23 7.125 23H10.875C11.4937 23 12 23.4852 12 24.0781V27.6719C12 28.2648 11.4937 28.75 10.875 28.75H7.125C6.50625 28.75 6 28.2648 6 27.6719V24.0781ZM6 35.5781C6 34.9852 6.50625 34.5 7.125 34.5H10.875C11.4937 34.5 12 34.9852 12 35.5781V39.1719C12 39.7648 11.4937 40.25 10.875 40.25H7.125C6.50625 40.25 6 39.7648 6 39.1719V35.5781ZM37.5 5.75H33V1.4375C33 0.646875 32.325 0 31.5 0H28.5C27.675 0 27 0.646875 27 1.4375V5.75H15V1.4375C15 0.646875 14.325 0 13.5 0H10.5C9.675 0 9 0.646875 9 1.4375V5.75H4.5C2.01562 5.75 0 7.68164 0 10.0625V14.375H42V10.0625C42 7.68164 39.9844 5.75 37.5 5.75Z" fill="white"/>
</svg>
