<svg width="48" height="37" viewBox="0 0 48 37" fill="none" xmlns="http://www.w3.org/2000/svg">
<path d="M23.3635 9.75698L7.9993 21.8839V34.9723C7.9993 35.3112 8.13977 35.6362 8.38982 35.8759C8.63987 36.1155 8.97901 36.2501 9.33263 36.2501L18.671 36.2269C19.0234 36.2253 19.3609 36.0899 19.6095 35.8504C19.8581 35.611 19.9976 35.2869 19.9976 34.9492V27.3057C19.9976 26.9668 20.1381 26.6418 20.3882 26.4021C20.6382 26.1625 20.9773 26.0279 21.331 26.0279H26.6643C27.0179 26.0279 27.3571 26.1625 27.6071 26.4021C27.8572 26.6418 27.9976 26.9668 27.9976 27.3057V34.9436C27.9971 35.1117 28.0312 35.2783 28.0979 35.4338C28.1647 35.5893 28.2628 35.7306 28.3867 35.8497C28.5105 35.9688 28.6577 36.0632 28.8198 36.1277C28.9818 36.1922 29.1555 36.2253 29.331 36.2253L38.666 36.2501C39.0196 36.2501 39.3587 36.1155 39.6088 35.8759C39.8588 35.6362 39.9993 35.3112 39.9993 34.9723V21.8751L24.6385 9.75698C24.4579 9.61748 24.2329 9.54141 24.001 9.54141C23.769 9.54141 23.544 9.61748 23.3635 9.75698ZM47.6326 17.9994L40.666 12.4962V1.43465C40.666 1.18049 40.5606 0.93673 40.3731 0.757008C40.1855 0.577286 39.9312 0.476318 39.666 0.476318H34.9993C34.7341 0.476318 34.4797 0.577286 34.2922 0.757008C34.1046 0.93673 33.9993 1.18049 33.9993 1.43465V7.23337L26.5385 1.3508C25.8225 0.786163 24.924 0.477447 23.9968 0.477447C23.0696 0.477447 22.1711 0.786163 21.4551 1.3508L0.360962 17.9994C0.259702 18.0797 0.175925 18.1782 0.114418 18.2894C0.0529118 18.4007 0.0148808 18.5225 0.00249867 18.6478C-0.0098835 18.7731 0.00362576 18.8996 0.0422546 19.0199C0.0808834 19.1402 0.143875 19.2521 0.227629 19.3491L2.35263 21.8248C2.43616 21.9221 2.53889 22.0027 2.65496 22.0619C2.77103 22.1212 2.89815 22.1579 3.02904 22.17C3.15993 22.1821 3.29203 22.1693 3.41776 22.1324C3.5435 22.0955 3.66041 22.0352 3.7618 21.955L23.3635 6.48267C23.544 6.34318 23.769 6.2671 24.001 6.2671C24.2329 6.2671 24.4579 6.34318 24.6385 6.48267L44.241 21.955C44.3422 22.0352 44.4589 22.0956 44.5845 22.1326C44.71 22.1696 44.842 22.1826 44.9728 22.1707C45.1035 22.1588 45.2306 22.1224 45.3467 22.0635C45.4628 22.0045 45.5656 21.9242 45.6493 21.8272L47.7743 19.3515C47.858 19.2539 47.9207 19.1415 47.9589 19.0206C47.997 18.8998 48.0099 18.7729 47.9967 18.6472C47.9836 18.5216 47.9446 18.3997 47.8821 18.2885C47.8197 18.1773 47.7349 18.0791 47.6326 17.9994Z" fill="white"/>
</svg>
