<svg width="48" height="46" viewBox="0 0 48 46" fill="none" xmlns="http://www.w3.org/2000/svg">
<path d="M47.121 25.3205C48.293 24.0371 48.293 21.9527 47.121 20.6692L35.1205 7.52634C33.9485 6.24286 32.0453 6.24286 30.8734 7.52634C29.7014 8.80982 29.7014 10.8942 30.8734 12.1777L37.755 19.7143H18.0009C16.3414 19.7143 15.0007 21.1826 15.0007 23C15.0007 24.8174 16.3414 26.2857 18.0009 26.2857H37.755L30.8734 33.8223C29.7014 35.1058 29.7014 37.1902 30.8734 38.4737C32.0453 39.7571 33.9485 39.7571 35.1205 38.4737L47.121 25.3308V25.3205ZM15.0007 6.57143C16.6602 6.57143 18.0009 5.10313 18.0009 3.28571C18.0009 1.4683 16.6602 0 15.0007 0H9.00044C4.03145 0 0 4.41518 0 9.85714V36.1429C0 41.5848 4.03145 46 9.00044 46H15.0007C16.6602 46 18.0009 44.5317 18.0009 42.7143C18.0009 40.8969 16.6602 39.4286 15.0007 39.4286H9.00044C7.34098 39.4286 6.00029 37.9603 6.00029 36.1429V9.85714C6.00029 8.03973 7.34098 6.57143 9.00044 6.57143H15.0007Z" fill="white"/>
</svg>
