<svg width="39" height="38" viewBox="0 0 39 38" fill="none" xmlns="http://www.w3.org/2000/svg">
<path d="M19.5 21.375C25.4004 21.375 30.1875 16.5879 30.1875 10.6875C30.1875 4.78711 25.4004 0 19.5 0C13.5996 0 8.8125 4.78711 8.8125 10.6875C8.8125 16.5879 13.5996 21.375 19.5 21.375ZM29 23.75H24.9105C23.2629 24.507 21.4297 24.9375 19.5 24.9375C17.5703 24.9375 15.7445 24.507 14.0895 23.75H10C4.75273 23.75 0.5 28.0027 0.5 33.25V34.4375C0.5 36.4043 2.0957 38 4.0625 38H34.9375C36.9043 38 38.5 36.4043 38.5 34.4375V33.25C38.5 28.0027 34.2473 23.75 29 23.75Z" fill="white"/>
</svg>
